<svg xmlns="http://www.w3.org/2000/svg" xmlns:xlink="http://www.w3.org/1999/xlink" viewBox="0 0 1180 610" width="1180" height="610" font-family="system-ui,-apple-system,'Segoe UI',Roboto,Helvetica,Arial,sans-serif" role="img" aria-label="Tolga - developer profile">
<style>
.pill{transition:transform .18s ease,filter .18s ease;transform-box:fill-box;transform-origin:center;}
.pill:hover{transform:scale(1.08);filter:brightness(1.15) drop-shadow(0 0 6px #06B6D4);}
.soc{transition:transform .18s ease,filter .18s ease;transform-box:fill-box;transform-origin:center;cursor:pointer;}
.soc:hover{transform:translateY(-2px) scale(1.12);filter:drop-shadow(0 0 6px #06B6D4);}
</style>
<defs>
<linearGradient id="accent" x1="0" y1="0" x2="1" y2="0"><stop offset="0" stop-color="#2563EB"/><stop offset="0.5" stop-color="#06B6D4"/><stop offset="1" stop-color="#10B981"/></linearGradient>
<linearGradient id="ascii" gradientUnits="userSpaceOnUse" x1="90" y1="150" x2="270" y2="470" spreadMethod="reflect"><stop offset="0.000" stop-color="#2563EB"/><stop offset="0.333" stop-color="#06B6D4"/><stop offset="0.667" stop-color="#2563EB"/><stop offset="1.000" stop-color="#06B6D4"/><animateTransform attributeName="gradientTransform" type="translate" values="0 0; 120 -80; 0 0" dur="7s" repeatCount="indefinite"/></linearGradient>
<linearGradient id="name" gradientUnits="userSpaceOnUse" x1="500" y1="0" x2="760" y2="0" spreadMethod="reflect"><stop offset="0" stop-color="#2563EB"/><stop offset="0.5" stop-color="#06B6D4"/><stop offset="1" stop-color="#10B981"/><animateTransform attributeName="gradientTransform" type="translate" values="0 0;180 0;0 0" dur="6s" repeatCount="indefinite"/></linearGradient>
<radialGradient id="blob0"><stop offset="0" stop-color="#2563EB" stop-opacity="0.12"/><stop offset="1" stop-color="#2563EB" stop-opacity="0"/></radialGradient>
<radialGradient id="blob1"><stop offset="0" stop-color="#06B6D4" stop-opacity="0.12"/><stop offset="1" stop-color="#06B6D4" stop-opacity="0"/></radialGradient>
<radialGradient id="blob2"><stop offset="0" stop-color="#10B981" stop-opacity="0.12"/><stop offset="1" stop-color="#10B981" stop-opacity="0"/></radialGradient>
<linearGradient id="scan" x1="0" y1="0" x2="0" y2="1"><stop offset="0" stop-color="#2563EB" stop-opacity="0"/><stop offset="0.5" stop-color="#2563EB" stop-opacity="0.9"/><stop offset="1" stop-color="#2563EB" stop-opacity="0"/></linearGradient>
<linearGradient id="sheen" x1="0" y1="0" x2="1" y2="1"><stop offset="0" stop-color="rgba(255,255,255,0.55)"/><stop offset="0.18" stop-color="rgba(255,255,255,0.55)" stop-opacity="0"/><stop offset="1" stop-color="rgba(255,255,255,0.55)" stop-opacity="0"/></linearGradient>
<linearGradient id="shimmer" gradientUnits="userSpaceOnUse" x1="0" y1="0" x2="500" y2="0" spreadMethod="repeat"><stop offset="0" stop-color="#2563EB" stop-opacity="0.0"/><stop offset="0.4" stop-color="#2563EB" stop-opacity="0.0"/><stop offset="0.5" stop-color="#06B6D4" stop-opacity="0.9"/><stop offset="0.6" stop-color="#2563EB" stop-opacity="0.0"/><stop offset="1" stop-color="#2563EB" stop-opacity="0.0"/><animateTransform attributeName="gradientTransform" type="translate" values="-500 0;500 0" dur="4.5s" repeatCount="indefinite"/></linearGradient>
<filter id="glow" x="-40%" y="-40%" width="180%" height="180%"><feGaussianBlur stdDeviation="3" result="b"/><feMerge><feMergeNode in="b"/><feMergeNode in="SourceGraphic"/></feMerge></filter>
<filter id="glowSoft" x="-60%" y="-60%" width="220%" height="220%"><feGaussianBlur stdDeviation="6" result="b"/><feMerge><feMergeNode in="b"/><feMergeNode in="SourceGraphic"/></feMerge></filter>
<filter id="shadow" x="-20%" y="-20%" width="140%" height="140%"><feDropShadow dx="0" dy="10" stdDeviation="18" flood-color="#000" flood-opacity="0.35"/></filter>
<filter id="noise"><feTurbulence type="fractalNoise" baseFrequency="0.9" numOctaves="2" stitchTiles="stitch"/><feColorMatrix type="saturate" values="0"/></filter>
<filter id="soft" x="-50%" y="-50%" width="200%" height="200%"><feGaussianBlur stdDeviation="30"/></filter>
<clipPath id="card"><rect x="6" y="6" width="1168" height="598" rx="26"/></clipPath>
<clipPath id="lpanel"><rect x="24" y="24" width="424" height="562" rx="18"/></clipPath>
<clipPath id="al0"><rect x="88" y="150" height="30" width="0"><animate attributeName="width" values="0;0;265" keyTimes="0;0.000;0.500" dur="4.36s" begin="0.3s" fill="freeze"/></rect></clipPath>
<clipPath id="al1"><rect x="88" y="176" height="30" width="0"><animate attributeName="width" values="0;0;265" keyTimes="0;0.280;0.780" dur="4.36s" begin="0.3s" fill="freeze"/></rect></clipPath>
<clipPath id="al2"><rect x="88" y="202" height="30" width="0"><animate attributeName="width" values="0;0;265" keyTimes="0;0.560;1.060" dur="4.36s" begin="0.3s" fill="freeze"/></rect></clipPath>
<clipPath id="al3"><rect x="88" y="228" height="30" width="0"><animate attributeName="width" values="0;0;265" keyTimes="0;0.840;1.340" dur="4.36s" begin="0.3s" fill="freeze"/></rect></clipPath>
<clipPath id="al4"><rect x="88" y="254" height="30" width="0"><animate attributeName="width" values="0;0;265" keyTimes="0;1.120;1.620" dur="4.36s" begin="0.3s" fill="freeze"/></rect></clipPath>
<clipPath id="al5"><rect x="88" y="280" height="30" width="0"><animate attributeName="width" values="0;0;265" keyTimes="0;1.400;1.900" dur="4.36s" begin="0.3s" fill="freeze"/></rect></clipPath>
<clipPath id="al6"><rect x="88" y="306" height="30" width="0"><animate attributeName="width" values="0;0;265" keyTimes="0;1.680;2.180" dur="4.36s" begin="0.3s" fill="freeze"/></rect></clipPath>
<clipPath id="al7"><rect x="88" y="332" height="30" width="0"><animate attributeName="width" values="0;0;265" keyTimes="0;1.960;2.460" dur="4.36s" begin="0.3s" fill="freeze"/></rect></clipPath>
<clipPath id="al8"><rect x="88" y="358" height="30" width="0"><animate attributeName="width" values="0;0;265" keyTimes="0;2.240;2.740" dur="4.36s" begin="0.3s" fill="freeze"/></rect></clipPath>
<clipPath id="al9"><rect x="88" y="384" height="30" width="0"><animate attributeName="width" values="0;0;265" keyTimes="0;2.520;3.020" dur="4.36s" begin="0.3s" fill="freeze"/></rect></clipPath>
<clipPath id="al10"><rect x="88" y="410" height="30" width="0"><animate attributeName="width" values="0;0;265" keyTimes="0;2.800;3.300" dur="4.36s" begin="0.3s" fill="freeze"/></rect></clipPath>
<clipPath id="al11"><rect x="88" y="436" height="30" width="0"><animate attributeName="width" values="0;0;265" keyTimes="0;3.080;3.580" dur="4.36s" begin="0.3s" fill="freeze"/></rect></clipPath>
<clipPath id="pl0"><rect x="498" y="154" height="26" width="0"><animate attributeName="width" values="0;0;276;276" keyTimes="0;0.0083;0.0611;1" dur="18s" repeatCount="indefinite"/></rect></clipPath>
<clipPath id="pl1"><rect x="498" y="154" height="26" width="0"><animate attributeName="width" values="0;0;211;211" keyTimes="0;0.1750;0.2278;1" dur="18s" repeatCount="indefinite"/></rect></clipPath>
<clipPath id="pl2"><rect x="498" y="154" height="26" width="0"><animate attributeName="width" values="0;0;190;190" keyTimes="0;0.3417;0.3944;1" dur="18s" repeatCount="indefinite"/></rect></clipPath>
<clipPath id="pl3"><rect x="498" y="154" height="26" width="0"><animate attributeName="width" values="0;0;200;200" keyTimes="0;0.5083;0.5611;1" dur="18s" repeatCount="indefinite"/></rect></clipPath>
<clipPath id="pl4"><rect x="498" y="154" height="26" width="0"><animate attributeName="width" values="0;0;179;179" keyTimes="0;0.6750;0.7278;1" dur="18s" repeatCount="indefinite"/></rect></clipPath>
<clipPath id="pl5"><rect x="498" y="154" height="26" width="0"><animate attributeName="width" values="0;0;254;254" keyTimes="0;0.8417;0.8944;1" dur="18s" repeatCount="indefinite"/></rect></clipPath>
</defs>
<g clip-path="url(#card)">
<rect x="0" y="0" width="1180" height="610" fill="#FFFFFF"/>
<g filter="url(#soft)"><circle cx="180" cy="120" r="340" fill="url(#blob0)"><animate attributeName="opacity" values="0.7;1;0.7" dur="9s" repeatCount="indefinite"/></circle><animateTransform attributeName="transform" type="translate" values="0 0;40 26;0 0" dur="9s" repeatCount="indefinite" additive="sum"/></g>
<g filter="url(#soft)"><circle cx="1000" cy="150" r="360" fill="url(#blob1)"><animate attributeName="opacity" values="0.7;1;0.7" dur="11s" repeatCount="indefinite"/></circle><animateTransform attributeName="transform" type="translate" values="0 0;-46 30;0 0" dur="11s" repeatCount="indefinite" additive="sum"/></g>
<g filter="url(#soft)"><circle cx="620" cy="640" r="380" fill="url(#blob2)"><animate attributeName="opacity" values="0.7;1;0.7" dur="13s" repeatCount="indefinite"/></circle><animateTransform attributeName="transform" type="translate" values="0 0;30 -34;0 0" dur="13s" repeatCount="indefinite" additive="sum"/></g>
<circle cx="703" cy="184" r="1.2" fill="#06B6D4" opacity="0.0"><animate attributeName="opacity" values="0;0.8;0" dur="7.3s" begin="0.4s" repeatCount="indefinite"/><animateTransform attributeName="transform" type="translate" values="0 0;0 -31" dur="7.3s" begin="2.3s" repeatCount="indefinite"/></circle>
<circle cx="1079" cy="249" r="0.9" fill="#06B6D4" opacity="0.0"><animate attributeName="opacity" values="0;0.8;0" dur="4.4s" begin="1.0s" repeatCount="indefinite"/><animateTransform attributeName="transform" type="translate" values="0 0;0 16" dur="4.4s" begin="2.2s" repeatCount="indefinite"/></circle>
<circle cx="161" cy="156" r="0.9" fill="#06B6D4" opacity="0.0"><animate attributeName="opacity" values="0;0.8;0" dur="7.2s" begin="2.3s" repeatCount="indefinite"/><animateTransform attributeName="transform" type="translate" values="0 0;0 -32" dur="7.2s" begin="0.2s" repeatCount="indefinite"/></circle>
<circle cx="492" cy="77" r="1.6" fill="#06B6D4" opacity="0.0"><animate attributeName="opacity" values="0;0.8;0" dur="8.3s" begin="0.6s" repeatCount="indefinite"/><animateTransform attributeName="transform" type="translate" values="0 0;0 27" dur="8.3s" begin="0.5s" repeatCount="indefinite"/></circle>
<circle cx="671" cy="215" r="0.9" fill="#06B6D4" opacity="0.0"><animate attributeName="opacity" values="0;0.8;0" dur="6.9s" begin="0.4s" repeatCount="indefinite"/><animateTransform attributeName="transform" type="translate" values="0 0;0 -25" dur="6.9s" begin="2.8s" repeatCount="indefinite"/></circle>
<circle cx="162" cy="240" r="1.2" fill="#06B6D4" opacity="0.0"><animate attributeName="opacity" values="0;0.8;0" dur="7.4s" begin="1.9s" repeatCount="indefinite"/><animateTransform attributeName="transform" type="translate" values="0 0;0 24" dur="7.4s" begin="3.7s" repeatCount="indefinite"/></circle>
<circle cx="780" cy="336" r="0.9" fill="#06B6D4" opacity="0.0"><animate attributeName="opacity" values="0;0.8;0" dur="8.0s" begin="2.3s" repeatCount="indefinite"/><animateTransform attributeName="transform" type="translate" values="0 0;0 -16" dur="8.0s" begin="2.1s" repeatCount="indefinite"/></circle>
<circle cx="743" cy="489" r="1.2" fill="#06B6D4" opacity="0.0"><animate attributeName="opacity" values="0;0.8;0" dur="7.0s" begin="2.0s" repeatCount="indefinite"/><animateTransform attributeName="transform" type="translate" values="0 0;0 -17" dur="7.0s" begin="0.7s" repeatCount="indefinite"/></circle>
<circle cx="740" cy="185" r="1.2" fill="#06B6D4" opacity="0.0"><animate attributeName="opacity" values="0;0.8;0" dur="6.1s" begin="2.3s" repeatCount="indefinite"/><animateTransform attributeName="transform" type="translate" values="0 0;0 -31" dur="6.1s" begin="3.5s" repeatCount="indefinite"/></circle>
<circle cx="682" cy="378" r="1.6" fill="#06B6D4" opacity="0.0"><animate attributeName="opacity" values="0;0.8;0" dur="5.8s" begin="3.2s" repeatCount="indefinite"/><animateTransform attributeName="transform" type="translate" values="0 0;0 32" dur="5.8s" begin="0.3s" repeatCount="indefinite"/></circle>
<circle cx="231" cy="306" r="1.2" fill="#06B6D4" opacity="0.0"><animate attributeName="opacity" values="0;0.8;0" dur="7.5s" begin="2.9s" repeatCount="indefinite"/><animateTransform attributeName="transform" type="translate" values="0 0;0 -15" dur="7.5s" begin="1.2s" repeatCount="indefinite"/></circle>
<circle cx="952" cy="321" r="1.6" fill="#06B6D4" opacity="0.0"><animate attributeName="opacity" values="0;0.8;0" dur="5.9s" begin="3.8s" repeatCount="indefinite"/><animateTransform attributeName="transform" type="translate" values="0 0;0 14" dur="5.9s" begin="1.4s" repeatCount="indefinite"/></circle>
<circle cx="279" cy="535" r="0.9" fill="#06B6D4" opacity="0.0"><animate attributeName="opacity" values="0;0.8;0" dur="5.1s" begin="3.0s" repeatCount="indefinite"/><animateTransform attributeName="transform" type="translate" values="0 0;0 18" dur="5.1s" begin="1.6s" repeatCount="indefinite"/></circle>
<circle cx="1056" cy="112" r="0.9" fill="#06B6D4" opacity="0.0"><animate attributeName="opacity" values="0;0.8;0" dur="6.2s" begin="3.3s" repeatCount="indefinite"/><animateTransform attributeName="transform" type="translate" values="0 0;0 18" dur="6.2s" begin="3.5s" repeatCount="indefinite"/></circle>
<circle cx="610" cy="455" r="1.2" fill="#06B6D4" opacity="0.0"><animate attributeName="opacity" values="0;0.8;0" dur="7.4s" begin="0.6s" repeatCount="indefinite"/><animateTransform attributeName="transform" type="translate" values="0 0;0 21" dur="7.4s" begin="0.7s" repeatCount="indefinite"/></circle>
<circle cx="515" cy="268" r="0.9" fill="#06B6D4" opacity="0.0"><animate attributeName="opacity" values="0;0.8;0" dur="6.4s" begin="1.1s" repeatCount="indefinite"/><animateTransform attributeName="transform" type="translate" values="0 0;0 -22" dur="6.4s" begin="0.6s" repeatCount="indefinite"/></circle>
<rect x="0" y="0" width="1180" height="610" filter="url(#noise)" opacity="0.03" style="mix-blend-mode:overlay"/>
</g>
<g filter="url(#shadow)"><rect x="24" y="24" width="424" height="562" rx="18" fill="#F8FAFC"/></g><path d="M42 24 h388 a18 18 0 0 1 18 18 v20 h-424 v-20 a18 18 0 0 1 18 -18 z" fill="#EEF2F8"/><circle cx="44" cy="43" r="5.5" fill="#FF5F57"><animate attributeName="opacity" values="0.85;1;0.85" dur="3s" begin="0.0s" repeatCount="indefinite"/></circle><circle cx="62" cy="43" r="5.5" fill="#FEBC2E"><animate attributeName="opacity" values="0.85;1;0.85" dur="3s" begin="0.3s" repeatCount="indefinite"/></circle><circle cx="80" cy="43" r="5.5" fill="#28C840"><animate attributeName="opacity" values="0.85;1;0.85" dur="3s" begin="0.6s" repeatCount="indefinite"/></circle><text x="432" y="47" text-anchor="end" font-family="ui-monospace,'SF Mono','Cascadia Code',Menlo,Consolas,monospace" font-size="11" fill="#475569" opacity="0.8">ascii://portrait</text><line x1="24" y1="62" x2="448" y2="62" stroke="rgba(15,23,42,0.05)"/><rect x="24" y="24" width="424" height="562" rx="18" fill="none" stroke="rgba(15,23,42,0.08)" stroke-width="1"/><rect x="25" y="25" width="422" height="281" rx="17" fill="url(#sheen)" opacity="0.5"/>
<g filter="url(#shadow)"><rect x="472" y="24" width="684" height="562" rx="18" fill="#F8FAFC"/></g><path d="M490 24 h648 a18 18 0 0 1 18 18 v20 h-684 v-20 a18 18 0 0 1 18 -18 z" fill="#EEF2F8"/><circle cx="492" cy="43" r="5.5" fill="#FF5F57"><animate attributeName="opacity" values="0.85;1;0.85" dur="3s" begin="0.0s" repeatCount="indefinite"/></circle><circle cx="510" cy="43" r="5.5" fill="#FEBC2E"><animate attributeName="opacity" values="0.85;1;0.85" dur="3s" begin="0.3s" repeatCount="indefinite"/></circle><circle cx="528" cy="43" r="5.5" fill="#28C840"><animate attributeName="opacity" values="0.85;1;0.85" dur="3s" begin="0.6s" repeatCount="indefinite"/></circle><text x="1140" y="47" text-anchor="end" font-family="ui-monospace,'SF Mono','Cascadia Code',Menlo,Consolas,monospace" font-size="11" fill="#475569" opacity="0.8">tolga@erp ~ %</text><line x1="472" y1="62" x2="1156" y2="62" stroke="rgba(15,23,42,0.05)"/><rect x="472" y="24" width="684" height="562" rx="18" fill="none" stroke="rgba(15,23,42,0.08)" stroke-width="1"/><rect x="473" y="25" width="682" height="281" rx="17" fill="url(#sheen)" opacity="0.5"/>
<g clip-path="url(#lpanel)">
<g><animateTransform attributeName="transform" type="translate" values="0 0;0 -6;0 0" dur="5s" repeatCount="indefinite" additive="sum"/>
<g filter="url(#glowSoft)" opacity="0.55">
<g clip-path="url(#al0)"><text x="92" y="172" xml:space="preserve" font-family="ui-monospace,'SF Mono','Cascadia Code',Menlo,Consolas,monospace" font-size="22" fill="url(#ascii)">      ▄▄██████▄▄     </text></g>
<g clip-path="url(#al1)"><text x="92" y="198" xml:space="preserve" font-family="ui-monospace,'SF Mono','Cascadia Code',Menlo,Consolas,monospace" font-size="22" fill="url(#ascii)">    ▄██▀▀    ▀▀██▄   </text></g>
<g clip-path="url(#al2)"><text x="92" y="224" xml:space="preserve" font-family="ui-monospace,'SF Mono','Cascadia Code',Menlo,Consolas,monospace" font-size="22" fill="url(#ascii)">   ██▀          ▀██  </text></g>
<g clip-path="url(#al3)"><text x="92" y="250" xml:space="preserve" font-family="ui-monospace,'SF Mono','Cascadia Code',Menlo,Consolas,monospace" font-size="22" fill="url(#ascii)">  ██   ▄▄    ▄▄   ██ </text></g>
<g clip-path="url(#al4)"><text x="92" y="276" xml:space="preserve" font-family="ui-monospace,'SF Mono','Cascadia Code',Menlo,Consolas,monospace" font-size="22" fill="url(#ascii)">  ██  ▐██▌  ▐██▌  ██ </text></g>
<g clip-path="url(#al5)"><text x="92" y="302" xml:space="preserve" font-family="ui-monospace,'SF Mono','Cascadia Code',Menlo,Consolas,monospace" font-size="22" fill="url(#ascii)">  ██   ▀▀    ▀▀   ██ </text></g>
<g clip-path="url(#al6)"><text x="92" y="328" xml:space="preserve" font-family="ui-monospace,'SF Mono','Cascadia Code',Menlo,Consolas,monospace" font-size="22" fill="url(#ascii)">  ██▖    ▄▄▄▄    ▗██ </text></g>
<g clip-path="url(#al7)"><text x="92" y="354" xml:space="preserve" font-family="ui-monospace,'SF Mono','Cascadia Code',Menlo,Consolas,monospace" font-size="22" fill="url(#ascii)">   ██▄  ▝▀▀▀▀▘  ▄██  </text></g>
<g clip-path="url(#al8)"><text x="92" y="380" xml:space="preserve" font-family="ui-monospace,'SF Mono','Cascadia Code',Menlo,Consolas,monospace" font-size="22" fill="url(#ascii)">    ▀██▄▄    ▄▄██▀   </text></g>
<g clip-path="url(#al9)"><text x="92" y="406" xml:space="preserve" font-family="ui-monospace,'SF Mono','Cascadia Code',Menlo,Consolas,monospace" font-size="22" fill="url(#ascii)">      ▀▀██████▀▀     </text></g>
<g clip-path="url(#al10)"><text x="92" y="432" xml:space="preserve" font-family="ui-monospace,'SF Mono','Cascadia Code',Menlo,Consolas,monospace" font-size="22" fill="url(#ascii)">        ▐████▌       </text></g>
<g clip-path="url(#al11)"><text x="92" y="458" xml:space="preserve" font-family="ui-monospace,'SF Mono','Cascadia Code',Menlo,Consolas,monospace" font-size="22" fill="url(#ascii)">       ▙█▘  ▐█▙      </text></g>
</g>
<g clip-path="url(#al0)"><text x="92" y="172" xml:space="preserve" font-family="ui-monospace,'SF Mono','Cascadia Code',Menlo,Consolas,monospace" font-size="22" fill="url(#ascii)" filter="url(#glow)">      ▄▄██████▄▄     </text></g>
<g clip-path="url(#al1)"><text x="92" y="198" xml:space="preserve" font-family="ui-monospace,'SF Mono','Cascadia Code',Menlo,Consolas,monospace" font-size="22" fill="url(#ascii)" filter="url(#glow)">    ▄██▀▀    ▀▀██▄   </text></g>
<g clip-path="url(#al2)"><text x="92" y="224" xml:space="preserve" font-family="ui-monospace,'SF Mono','Cascadia Code',Menlo,Consolas,monospace" font-size="22" fill="url(#ascii)" filter="url(#glow)">   ██▀          ▀██  </text></g>
<g clip-path="url(#al3)"><text x="92" y="250" xml:space="preserve" font-family="ui-monospace,'SF Mono','Cascadia Code',Menlo,Consolas,monospace" font-size="22" fill="url(#ascii)" filter="url(#glow)">  ██   ▄▄    ▄▄   ██ </text></g>
<g clip-path="url(#al4)"><text x="92" y="276" xml:space="preserve" font-family="ui-monospace,'SF Mono','Cascadia Code',Menlo,Consolas,monospace" font-size="22" fill="url(#ascii)" filter="url(#glow)">  ██  ▐██▌  ▐██▌  ██ </text></g>
<g clip-path="url(#al5)"><text x="92" y="302" xml:space="preserve" font-family="ui-monospace,'SF Mono','Cascadia Code',Menlo,Consolas,monospace" font-size="22" fill="url(#ascii)" filter="url(#glow)">  ██   ▀▀    ▀▀   ██ </text></g>
<g clip-path="url(#al6)"><text x="92" y="328" xml:space="preserve" font-family="ui-monospace,'SF Mono','Cascadia Code',Menlo,Consolas,monospace" font-size="22" fill="url(#ascii)" filter="url(#glow)">  ██▖    ▄▄▄▄    ▗██ </text></g>
<g clip-path="url(#al7)"><text x="92" y="354" xml:space="preserve" font-family="ui-monospace,'SF Mono','Cascadia Code',Menlo,Consolas,monospace" font-size="22" fill="url(#ascii)" filter="url(#glow)">   ██▄  ▝▀▀▀▀▘  ▄██  </text></g>
<g clip-path="url(#al8)"><text x="92" y="380" xml:space="preserve" font-family="ui-monospace,'SF Mono','Cascadia Code',Menlo,Consolas,monospace" font-size="22" fill="url(#ascii)" filter="url(#glow)">    ▀██▄▄    ▄▄██▀   </text></g>
<g clip-path="url(#al9)"><text x="92" y="406" xml:space="preserve" font-family="ui-monospace,'SF Mono','Cascadia Code',Menlo,Consolas,monospace" font-size="22" fill="url(#ascii)" filter="url(#glow)">      ▀▀██████▀▀     </text></g>
<g clip-path="url(#al10)"><text x="92" y="432" xml:space="preserve" font-family="ui-monospace,'SF Mono','Cascadia Code',Menlo,Consolas,monospace" font-size="22" fill="url(#ascii)" filter="url(#glow)">        ▐████▌       </text></g>
<g clip-path="url(#al11)"><text x="92" y="458" xml:space="preserve" font-family="ui-monospace,'SF Mono','Cascadia Code',Menlo,Consolas,monospace" font-size="22" fill="url(#ascii)" filter="url(#glow)">       ▙█▘  ▐█▙      </text></g>
</g>
<rect x="32" y="150" width="408" height="26" fill="url(#scan)" opacity="0.5" style="mix-blend-mode:screen"><animate attributeName="y" values="150;470;150" dur="4.5s" repeatCount="indefinite"/></rect>
<text x="90" y="530" font-family="ui-monospace,'SF Mono','Cascadia Code',Menlo,Consolas,monospace" font-size="13" fill="#475569">&gt; deploying erp.saas</text>
<rect x="260" y="518" width="9" height="15" fill="#06B6D4"><animate attributeName="opacity" values="1;1;0;0;1" keyTimes="0;0.45;0.5;0.95;1" dur="1.05s" repeatCount="indefinite"/></rect>
</g>
<text x="500" y="94" font-size="17" fill="#475569" opacity="0">Hi <tspan font-size="18">👋</tspan><animate attributeName="opacity" values="0;1" dur="0.6s" begin="0.2s" fill="freeze"/></text>
<text x="500" y="134" font-size="38" font-weight="700" fill="url(#name)" filter="url(#glow)" opacity="0">I’m Tolga<animate attributeName="opacity" values="0;1" dur="0.7s" begin="0.45s" fill="freeze"/><animateTransform attributeName="transform" type="translate" values="-8 0;0 0" dur="0.7s" begin="0.45s" fill="freeze" additive="sum"/></text>
<text x="480" y="172" font-family="ui-monospace,'SF Mono','Cascadia Code',Menlo,Consolas,monospace" font-size="18" fill="#06B6D4" font-weight="600">&gt;</text>
<g opacity="0"><animate attributeName="opacity" values="0;0;1;1;0;0" keyTimes="0;0.0028;0.0038;0.1583;0.1593;1" dur="18s" repeatCount="indefinite"/>
<g clip-path="url(#pl0)"><text x="500" y="172" font-family="ui-monospace,'SF Mono','Cascadia Code',Menlo,Consolas,monospace" font-size="18" font-weight="600" fill="#0F172A">Full-Stack .NET Developer</text></g>
<rect x="774" y="157" width="3" height="18" fill="#06B6D4"><animate attributeName="opacity" values="1;1;0;0;1" keyTimes="0;0.45;0.5;0.95;1" dur="1.05s" repeatCount="indefinite"/></rect>
</g>
<g opacity="0"><animate attributeName="opacity" values="0;0;1;1;0;0" keyTimes="0;0.1694;0.1704;0.3250;0.3260;1" dur="18s" repeatCount="indefinite"/>
<g clip-path="url(#pl1)"><text x="500" y="172" font-family="ui-monospace,'SF Mono','Cascadia Code',Menlo,Consolas,monospace" font-size="18" font-weight="600" fill="#0F172A">Next.js 15 Engineer</text></g>
<rect x="709" y="157" width="3" height="18" fill="#06B6D4"><animate attributeName="opacity" values="1;1;0;0;1" keyTimes="0;0.45;0.5;0.95;1" dur="1.05s" repeatCount="indefinite"/></rect>
</g>
<g opacity="0"><animate attributeName="opacity" values="0;0;1;1;0;0" keyTimes="0;0.3361;0.3371;0.4917;0.4927;1" dur="18s" repeatCount="indefinite"/>
<g clip-path="url(#pl2)"><text x="500" y="172" font-family="ui-monospace,'SF Mono','Cascadia Code',Menlo,Consolas,monospace" font-size="18" font-weight="600" fill="#0F172A">Flutter Developer</text></g>
<rect x="688" y="157" width="3" height="18" fill="#06B6D4"><animate attributeName="opacity" values="1;1;0;0;1" keyTimes="0;0.45;0.5;0.95;1" dur="1.05s" repeatCount="indefinite"/></rect>
</g>
<g opacity="0"><animate attributeName="opacity" values="0;0;1;1;0;0" keyTimes="0;0.5028;0.5038;0.6583;0.6593;1" dur="18s" repeatCount="indefinite"/>
<g clip-path="url(#pl3)"><text x="500" y="172" font-family="ui-monospace,'SF Mono','Cascadia Code',Menlo,Consolas,monospace" font-size="18" font-weight="600" fill="#0F172A">ERP SaaS Architect</text></g>
<rect x="698" y="157" width="3" height="18" fill="#06B6D4"><animate attributeName="opacity" values="1;1;0;0;1" keyTimes="0;0.45;0.5;0.95;1" dur="1.05s" repeatCount="indefinite"/></rect>
</g>
<g opacity="0"><animate attributeName="opacity" values="0;0;1;1;0;0" keyTimes="0;0.6694;0.6704;0.8250;0.8260;1" dur="18s" repeatCount="indefinite"/>
<g clip-path="url(#pl4)"><text x="500" y="172" font-family="ui-monospace,'SF Mono','Cascadia Code',Menlo,Consolas,monospace" font-size="18" font-weight="600" fill="#0F172A">SQL Server Tuner</text></g>
<rect x="677" y="157" width="3" height="18" fill="#06B6D4"><animate attributeName="opacity" values="1;1;0;0;1" keyTimes="0;0.45;0.5;0.95;1" dur="1.05s" repeatCount="indefinite"/></rect>
</g>
<g opacity="0"><animate attributeName="opacity" values="0;0;1;1;0;0" keyTimes="0;0.8361;0.8371;0.9917;0.9927;1" dur="18s" repeatCount="indefinite"/>
<g clip-path="url(#pl5)"><text x="500" y="172" font-family="ui-monospace,'SF Mono','Cascadia Code',Menlo,Consolas,monospace" font-size="18" font-weight="600" fill="#0F172A">AI Integration Engineer</text></g>
<rect x="752" y="157" width="3" height="18" fill="#06B6D4"><animate attributeName="opacity" values="1;1;0;0;1" keyTimes="0;0.45;0.5;0.95;1" dur="1.05s" repeatCount="indefinite"/></rect>
</g>
<rect x="500" y="190" width="628" height="1.5" fill="url(#accent)" opacity="0.5" rx="1"/>
<g opacity="0"><animate attributeName="opacity" values="0;1" dur="0.5s" begin="0.90s" fill="freeze"/><animateTransform attributeName="transform" type="translate" values="-10 0;0 0" dur="0.5s" begin="0.90s" fill="freeze" additive="sum"/>
<g transform="translate(500,203) scale(0.95)" fill="none" stroke="url(#accent)" stroke-width="1.4" stroke-linecap="round" stroke-linejoin="round"><path d="M8 1.2a4.4 4.4 0 0 0-4.4 4.4c0 3.3 4.4 8.8 4.4 8.8s4.4-5.5 4.4-8.8A4.4 4.4 0 0 0 8 1.2Zm0 6a1.6 1.6 0 1 1 0-3.2 1.6 1.6 0 0 1 0 3.2Z"/></g>
<text x="526" y="216" font-size="13.5" fill="#475569" font-family="ui-monospace,'SF Mono','Cascadia Code',Menlo,Consolas,monospace">Location</text>
<text x="650" y="216" font-size="14" fill="#0F172A" font-weight="500">Istanbul, Türkiye</text>
</g>
<g opacity="0"><animate attributeName="opacity" values="0;1" dur="0.5s" begin="1.08s" fill="freeze"/><animateTransform attributeName="transform" type="translate" values="-10 0;0 0" dur="0.5s" begin="1.08s" fill="freeze" additive="sum"/>
<g transform="translate(500,231) scale(0.95)" fill="none" stroke="url(#accent)" stroke-width="1.4" stroke-linecap="round" stroke-linejoin="round"><path d="M8 3.4a4.6 4.6 0 1 0 0 9.2 4.6 4.6 0 0 0 0-9.2Zm0 7a2.4 2.4 0 1 1 0-4.8 2.4 2.4 0 0 1 0 4.8ZM8 .8v1.8M8 13.4v1.8M.8 8h1.8M13.4 8h1.8"/></g>
<text x="526" y="244" font-size="13.5" fill="#475569" font-family="ui-monospace,'SF Mono','Cascadia Code',Menlo,Consolas,monospace">Focus</text>
<text x="650" y="244" font-size="14" fill="#0F172A" font-weight="500">Multi-tenant ERP SaaS</text>
</g>
<g opacity="0"><animate attributeName="opacity" values="0;1" dur="0.5s" begin="1.26s" fill="freeze"/><animateTransform attributeName="transform" type="translate" values="-10 0;0 0" dur="0.5s" begin="1.26s" fill="freeze" additive="sum"/>
<g transform="translate(500,259) scale(0.95)" fill="none" stroke="url(#accent)" stroke-width="1.4" stroke-linecap="round" stroke-linejoin="round"><path d="M8 1.8 1.4 5 8 8.2 14.6 5 8 1.8Zm6.6 6.9L8 11.9 1.4 8.7M14.6 11.4 8 14.6 1.4 11.4"/></g>
<text x="526" y="272" font-size="13.5" fill="#475569" font-family="ui-monospace,'SF Mono','Cascadia Code',Menlo,Consolas,monospace">Backend</text>
<text x="650" y="272" font-size="14" fill="#0F172A" font-weight="500">.NET 10 · MSSQL · RabbitMQ</text>
</g>
<g opacity="0"><animate attributeName="opacity" values="0;1" dur="0.5s" begin="1.44s" fill="freeze"/><animateTransform attributeName="transform" type="translate" values="-10 0;0 0" dur="0.5s" begin="1.44s" fill="freeze" additive="sum"/>
<g transform="translate(500,287) scale(0.95)" fill="none" stroke="url(#accent)" stroke-width="1.4" stroke-linecap="round" stroke-linejoin="round"><path d="M5.6 4.4 1.8 8l3.8 3.6M10.4 4.4 14.2 8l-3.8 3.6M9.3 3 6.7 13"/></g>
<text x="526" y="300" font-size="13.5" fill="#475569" font-family="ui-monospace,'SF Mono','Cascadia Code',Menlo,Consolas,monospace">Frontend</text>
<text x="650" y="300" font-size="14" fill="#0F172A" font-weight="500">Next.js 15 · React 19 · Flutter</text>
</g>
<g opacity="0"><animate attributeName="opacity" values="0;1" dur="0.5s" begin="1.62s" fill="freeze"/><animateTransform attributeName="transform" type="translate" values="-10 0;0 0" dur="0.5s" begin="1.62s" fill="freeze" additive="sum"/>
<g transform="translate(500,315) scale(0.95)" fill="none" stroke="url(#accent)" stroke-width="1.4" stroke-linecap="round" stroke-linejoin="round"><path d="M8 1.8l1.5 3.7L13.2 7l-3.7 1.5L8 12.2 6.5 8.5 2.8 7l3.7-1.5L8 1.8Zm4.4 9.2.6 1.5 1.5.6-1.5.6-.6 1.5-.6-1.5-1.5-.6 1.5-.6.6-1.5Z"/></g>
<text x="526" y="328" font-size="13.5" fill="#475569" font-family="ui-monospace,'SF Mono','Cascadia Code',Menlo,Consolas,monospace">Building</text>
<text x="650" y="328" font-size="14" fill="#0F172A" font-weight="500">POS + AI e-Fatura OCR</text>
</g>
<g opacity="0"><animate attributeName="opacity" values="0;1" dur="0.45s" begin="1.40s" fill="freeze"/><text x="500" y="397" font-family="ui-monospace,'SF Mono','Cascadia Code',Menlo,Consolas,monospace" font-size="11" letter-spacing="1.5" fill="#475569">BACKEND</text></g>
<g class="pill" opacity="0"><animate attributeName="opacity" values="0;1" dur="0.4s" begin="1.50s" fill="freeze"/><rect x="608" y="380" width="75" height="26" rx="13" fill="rgba(15,23,42,0.03)" stroke="url(#accent)" stroke-width="1"><animate attributeName="stroke-opacity" values="0.5;1;0.5" dur="3.0s" repeatCount="indefinite"/></rect><text x="646" y="397" text-anchor="middle" font-size="12.5" fill="#0F172A" font-weight="500">.NET 10</text></g>
<g class="pill" opacity="0"><animate attributeName="opacity" values="0;1" dur="0.4s" begin="1.57s" fill="freeze"/><rect x="691" y="380" width="38" height="26" rx="13" fill="rgba(15,23,42,0.03)" stroke="url(#accent)" stroke-width="1"><animate attributeName="stroke-opacity" values="0.5;1;0.5" dur="3.1s" repeatCount="indefinite"/></rect><text x="710" y="397" text-anchor="middle" font-size="12.5" fill="#0F172A" font-weight="500">C#</text></g>
<g class="pill" opacity="0"><animate attributeName="opacity" values="0;1" dur="0.4s" begin="1.64s" fill="freeze"/><rect x="737" y="380" width="83" height="26" rx="13" fill="rgba(15,23,42,0.03)" stroke="url(#accent)" stroke-width="1"><animate attributeName="stroke-opacity" values="0.5;1;0.5" dur="3.3s" repeatCount="indefinite"/></rect><text x="778" y="397" text-anchor="middle" font-size="12.5" fill="#0F172A" font-weight="500">Hangfire</text></g>
<g opacity="0"><animate attributeName="opacity" values="0;1" dur="0.45s" begin="1.62s" fill="freeze"/><text x="500" y="428" font-family="ui-monospace,'SF Mono','Cascadia Code',Menlo,Consolas,monospace" font-size="11" letter-spacing="1.5" fill="#475569">FRONTEND</text></g>
<g class="pill" opacity="0"><animate attributeName="opacity" values="0;1" dur="0.4s" begin="1.72s" fill="freeze"/><rect x="608" y="411" width="75" height="26" rx="13" fill="rgba(15,23,42,0.03)" stroke="url(#accent)" stroke-width="1"><animate attributeName="stroke-opacity" values="0.5;1;0.5" dur="3.5s" repeatCount="indefinite"/></rect><text x="646" y="428" text-anchor="middle" font-size="12.5" fill="#0F172A" font-weight="500">Next.js</text></g>
<g class="pill" opacity="0"><animate attributeName="opacity" values="0;1" dur="0.4s" begin="1.79s" fill="freeze"/><rect x="691" y="411" width="83" height="26" rx="13" fill="rgba(15,23,42,0.03)" stroke="url(#accent)" stroke-width="1"><animate attributeName="stroke-opacity" values="0.5;1;0.5" dur="3.6s" repeatCount="indefinite"/></rect><text x="732" y="428" text-anchor="middle" font-size="12.5" fill="#0F172A" font-weight="500">React 19</text></g>
<g class="pill" opacity="0"><animate attributeName="opacity" values="0;1" dur="0.4s" begin="1.86s" fill="freeze"/><rect x="782" y="411" width="98" height="26" rx="13" fill="rgba(15,23,42,0.03)" stroke="url(#accent)" stroke-width="1"><animate attributeName="stroke-opacity" values="0.5;1;0.5" dur="3.8s" repeatCount="indefinite"/></rect><text x="831" y="428" text-anchor="middle" font-size="12.5" fill="#0F172A" font-weight="500">TypeScript</text></g>
<g class="pill" opacity="0"><animate attributeName="opacity" values="0;1" dur="0.4s" begin="1.93s" fill="freeze"/><rect x="888" y="411" width="83" height="26" rx="13" fill="rgba(15,23,42,0.03)" stroke="url(#accent)" stroke-width="1"><animate attributeName="stroke-opacity" values="0.5;1;0.5" dur="3.9s" repeatCount="indefinite"/></rect><text x="930" y="428" text-anchor="middle" font-size="12.5" fill="#0F172A" font-weight="500">Tailwind</text></g>
<g opacity="0"><animate attributeName="opacity" values="0;1" dur="0.45s" begin="1.84s" fill="freeze"/><text x="500" y="459" font-family="ui-monospace,'SF Mono','Cascadia Code',Menlo,Consolas,monospace" font-size="11" letter-spacing="1.5" fill="#475569">MOBILE</text></g>
<g class="pill" opacity="0"><animate attributeName="opacity" values="0;1" dur="0.4s" begin="1.94s" fill="freeze"/><rect x="608" y="442" width="75" height="26" rx="13" fill="rgba(15,23,42,0.03)" stroke="url(#accent)" stroke-width="1"><animate attributeName="stroke-opacity" values="0.5;1;0.5" dur="4.0s" repeatCount="indefinite"/></rect><text x="646" y="459" text-anchor="middle" font-size="12.5" fill="#0F172A" font-weight="500">Flutter</text></g>
<g class="pill" opacity="0"><animate attributeName="opacity" values="0;1" dur="0.4s" begin="2.01s" fill="freeze"/><rect x="691" y="442" width="53" height="26" rx="13" fill="rgba(15,23,42,0.03)" stroke="url(#accent)" stroke-width="1"><animate attributeName="stroke-opacity" values="0.5;1;0.5" dur="4.2s" repeatCount="indefinite"/></rect><text x="718" y="459" text-anchor="middle" font-size="12.5" fill="#0F172A" font-weight="500">Dart</text></g>
<g opacity="0"><animate attributeName="opacity" values="0;1" dur="0.45s" begin="2.06s" fill="freeze"/><text x="500" y="490" font-family="ui-monospace,'SF Mono','Cascadia Code',Menlo,Consolas,monospace" font-size="11" letter-spacing="1.5" fill="#475569">DATA</text></g>
<g class="pill" opacity="0"><animate attributeName="opacity" values="0;1" dur="0.4s" begin="2.16s" fill="freeze"/><rect x="608" y="473" width="61" height="26" rx="13" fill="rgba(15,23,42,0.03)" stroke="url(#accent)" stroke-width="1"><animate attributeName="stroke-opacity" values="0.5;1;0.5" dur="4.3s" repeatCount="indefinite"/></rect><text x="638" y="490" text-anchor="middle" font-size="12.5" fill="#0F172A" font-weight="500">MSSQL</text></g>
<g class="pill" opacity="0"><animate attributeName="opacity" values="0;1" dur="0.4s" begin="2.23s" fill="freeze"/><rect x="677" y="473" width="83" height="26" rx="13" fill="rgba(15,23,42,0.03)" stroke="url(#accent)" stroke-width="1"><animate attributeName="stroke-opacity" values="0.5;1;0.5" dur="4.5s" repeatCount="indefinite"/></rect><text x="718" y="490" text-anchor="middle" font-size="12.5" fill="#0F172A" font-weight="500">Postgres</text></g>
<g class="pill" opacity="0"><animate attributeName="opacity" values="0;1" dur="0.4s" begin="2.30s" fill="freeze"/><rect x="768" y="473" width="61" height="26" rx="13" fill="rgba(15,23,42,0.03)" stroke="url(#accent)" stroke-width="1"><animate attributeName="stroke-opacity" values="0.5;1;0.5" dur="4.7s" repeatCount="indefinite"/></rect><text x="798" y="490" text-anchor="middle" font-size="12.5" fill="#0F172A" font-weight="500">Redis</text></g>
<g class="pill" opacity="0"><animate attributeName="opacity" values="0;1" dur="0.4s" begin="2.37s" fill="freeze"/><rect x="837" y="473" width="83" height="26" rx="13" fill="rgba(15,23,42,0.03)" stroke="url(#accent)" stroke-width="1"><animate attributeName="stroke-opacity" values="0.5;1;0.5" dur="4.8s" repeatCount="indefinite"/></rect><text x="878" y="490" text-anchor="middle" font-size="12.5" fill="#0F172A" font-weight="500">RabbitMQ</text></g>
<g opacity="0"><animate attributeName="opacity" values="0;1" dur="0.45s" begin="2.28s" fill="freeze"/><text x="500" y="521" font-family="ui-monospace,'SF Mono','Cascadia Code',Menlo,Consolas,monospace" font-size="11" letter-spacing="1.5" fill="#475569">DEVOPS</text></g>
<g class="pill" opacity="0"><animate attributeName="opacity" values="0;1" dur="0.4s" begin="2.38s" fill="freeze"/><rect x="608" y="504" width="68" height="26" rx="13" fill="rgba(15,23,42,0.03)" stroke="url(#accent)" stroke-width="1"><animate attributeName="stroke-opacity" values="0.5;1;0.5" dur="5.0s" repeatCount="indefinite"/></rect><text x="642" y="521" text-anchor="middle" font-size="12.5" fill="#0F172A" font-weight="500">Docker</text></g>
<g class="pill" opacity="0"><animate attributeName="opacity" values="0;1" dur="0.4s" begin="2.45s" fill="freeze"/><rect x="684" y="504" width="46" height="26" rx="13" fill="rgba(15,23,42,0.03)" stroke="url(#accent)" stroke-width="1"><animate attributeName="stroke-opacity" values="0.5;1;0.5" dur="5.1s" repeatCount="indefinite"/></rect><text x="707" y="521" text-anchor="middle" font-size="12.5" fill="#0F172A" font-weight="500">IIS</text></g>
<g class="soc" opacity="0"><animate attributeName="opacity" values="0;1" dur="0.5s" begin="2.20s" fill="freeze"/><circle cx="516" cy="558" r="18" fill="rgba(15,23,42,0.03)" stroke="rgba(15,23,42,0.08)" stroke-width="1"><animate attributeName="stroke" values="rgba(15,23,42,0.08);#06B6D4;rgba(15,23,42,0.08)" dur="4.0s" repeatCount="indefinite"/></circle><g transform="translate(504,546)" fill="url(#accent)"><path d="M12 2.1A10 10 0 0 0 8.8 21.6c.5.1.7-.2.7-.5v-1.7c-2.8.6-3.4-1.3-3.4-1.3-.5-1.2-1.1-1.5-1.1-1.5-.9-.6.1-.6.1-.6 1 .1 1.5 1 1.5 1 .9 1.6 2.4 1.1 3 .8.1-.6.3-1.1.6-1.4-2.2-.2-4.6-1.1-4.6-5 0-1.1.4-2 1-2.7-.1-.3-.4-1.3.1-2.7 0 0 .8-.3 2.7 1a9.4 9.4 0 0 1 5 0c1.9-1.3 2.7-1 2.7-1 .5 1.4.2 2.4.1 2.7.6.7 1 1.6 1 2.7 0 3.9-2.4 4.8-4.6 5 .3.3.6.9.6 1.9v2.8c0 .3.2.6.7.5A10 10 0 0 0 12 2.1Z"/></g></g>
<g class="soc" opacity="0"><animate attributeName="opacity" values="0;1" dur="0.5s" begin="2.32s" fill="freeze"/><circle cx="562" cy="558" r="18" fill="rgba(15,23,42,0.03)" stroke="rgba(15,23,42,0.08)" stroke-width="1"><animate attributeName="stroke" values="rgba(15,23,42,0.08);#06B6D4;rgba(15,23,42,0.08)" dur="4.4s" repeatCount="indefinite"/></circle><g transform="translate(550,546)" fill="url(#accent)"><path d="M4.9 3.5a1.8 1.8 0 1 1 0 3.6 1.8 1.8 0 0 1 0-3.6ZM3.4 8.4h3v9.1h-3V8.4Zm5 0h2.9v1.3h.05c.4-.75 1.4-1.55 2.85-1.55 3.05 0 3.6 2 3.6 4.6v4.75h-3v-4.2c0-1 0-2.3-1.4-2.3s-1.6 1.1-1.6 2.25v4.25h-3V8.4Z"/></g></g>
<g class="soc" opacity="0"><animate attributeName="opacity" values="0;1" dur="0.5s" begin="2.44s" fill="freeze"/><circle cx="608" cy="558" r="18" fill="rgba(15,23,42,0.03)" stroke="rgba(15,23,42,0.08)" stroke-width="1"><animate attributeName="stroke" values="rgba(15,23,42,0.08);#06B6D4;rgba(15,23,42,0.08)" dur="4.8s" repeatCount="indefinite"/></circle><g transform="translate(596,546)" fill="url(#accent)"><path d="M18.9 3.5h2.9l-6.3 7.2 7.4 9.8h-5.8l-4.5-6-5.2 6H4.5l6.7-7.7L4.2 3.5H10l4.1 5.4 4.8-5.4Zm-1 15.3h1.6L8.1 5.1H6.4l11.5 13.7Z"/></g></g>
<g class="soc" opacity="0"><animate attributeName="opacity" values="0;1" dur="0.5s" begin="2.56s" fill="freeze"/><circle cx="654" cy="558" r="18" fill="rgba(15,23,42,0.03)" stroke="rgba(15,23,42,0.08)" stroke-width="1"><animate attributeName="stroke" values="rgba(15,23,42,0.08);#06B6D4;rgba(15,23,42,0.08)" dur="5.2s" repeatCount="indefinite"/></circle><g transform="translate(642,546)" fill="url(#accent)"><path d="M12 2.5a9.5 9.5 0 1 0 0 19 9.5 9.5 0 0 0 0-19Zm6.9 6.2h-2.8a15 15 0 0 0-1.3-3.6 7.6 7.6 0 0 1 4.1 3.6ZM12 4.4c.9 1.1 1.5 2.6 1.9 4.3h-3.8C10.5 7 11.1 5.5 12 4.4ZM4.4 13.2a7.5 7.5 0 0 1 0-4h3.1a17 17 0 0 0 0 4Zm.6 2h2.8a15 15 0 0 0 1.3 3.6A7.6 7.6 0 0 1 5 15.2Zm2.8-6.5H4.9A7.6 7.6 0 0 1 7.8 5.1a15 15 0 0 0-1 3.6ZM12 19.6c-.9-1.1-1.5-2.6-1.9-4.3h3.8c-.4 1.7-1 3.2-1.9 4.3Zm2.3-6.4H9.6a15 15 0 0 1 0-4h4.7a15 15 0 0 1 0 4Zm.4 5.8a15 15 0 0 0 1.3-3.6h2.8a7.6 7.6 0 0 1-4.1 3.6Zm1.7-5.8a17 17 0 0 0 0-4h3.1a7.5 7.5 0 0 1 0 4Z"/></g></g>
<rect x="6" y="6" width="1168" height="598" rx="26" fill="none" stroke="rgba(15,23,42,0.08)" stroke-width="1.5"/>
<rect x="6" y="6" width="1168" height="598" rx="26" fill="none" stroke="url(#shimmer)" stroke-width="2"/>
<g clip-path="url(#card)"><rect x="-400" y="0" width="380" height="610" fill="rgba(255,255,255,0.55)" opacity="0.35" transform="skewX(-18)" style="mix-blend-mode:screen"><animate attributeName="x" values="-400;1380" dur="7s" begin="1s" repeatCount="indefinite"/></rect></g>
</svg>